/* XPM */
static const char *IDI_ICON1_xpm[] = {
/* columns rows colors chars-per-pixel */
"32 32 6 1",
"  c Gray0",
". c #0000bf",
"X c Blue",
"o c Cyan",
"O c Yellow",
"+ c Gray100",
/* pixels */
"                                ",
"              O +               ",
"             O O +              ",
"            OO O ++             ",
"           OO OO +++            ",
"          OOO OOO +++           ",
"         OOOO OOO ++++          ",
"        OOOO OOOO +++++         ",
"       OOOOO OOOOO +++++        ",
"      OOOOO OOOOOO ++++++       ",
"     OOOOOO OOOOOOO ++++++      ",
"    OOOOOO OOOOOOOO +++++++     ",
"   OOOOOOO OOOOOOOO ++++++++    ",
"  OOOOOOOO OOOOOOOOO ++++++++   ",
"  OOOOOOO OOOOOOOOOO +++++++++  ",
"     OOOO OOOOOOOOOO ++++       ",
"   +.  O OOOOOOOOOOOO +  ooo    ",
"    +..                ooooo    ",
"     +... XXXXXXXXXXX ooooo     ",
"     +... XXXXXXXXXX ooooo      ",
"      +... XXXXXXXXX oooo       ",
"       +.. XXXXXXXXX oooo       ",
"        +.. XXXXXXX oooo        ",
"         +. XXXXXXX ooo         ",
"          +. XXXXXX oo          ",
"           +. XXXX ooo          ",
"            + XXXX oo           ",
"            +. XX oo            ",
"             + XX o             ",
"              + X o             ",
"               +                ",
"                                "
};
